<?xml version="1.0" encoding="UTF-8" standalone="no"?><!DOCTYPE svg PUBLIC "-//W3C//DTD SVG 1.1//EN" "http://www.w3.org/Graphics/SVG/1.1/DTD/svg11.dtd"><svg width="100%" height="100%" viewBox="0 0 591 153" version="1.1" xmlns="http://www.w3.org/2000/svg" xmlns:xlink="http://www.w3.org/1999/xlink" xml:space="preserve" xmlns:serif="http://www.serif.com/" style="fill-rule:evenodd;clip-rule:evenodd;stroke-linejoin:round;stroke-miterlimit:2;"><g id="g5093"><g id="g816"><g id="use790"><path id="path5" d="M36.806,65.191c-3.256,2.778 -6.402,4.753 -9.462,5.903c-3.017,1.15 -6.229,1.736 -9.636,1.736c-5.729,-0 -10.134,-1.389 -13.194,-4.167c-3.017,-2.821 -4.514,-6.423 -4.514,-10.764c-0,-2.474 0.564,-4.774 1.736,-6.857c1.15,-2.127 2.648,-3.841 4.514,-5.122c1.845,-1.259 3.95,-2.213 6.337,-2.864c1.736,-0.456 4.34,-0.89 7.812,-1.303c7.053,-0.868 12.262,-1.866 15.625,-3.038c0.044,-1.215 0.087,-1.996 0.087,-2.343c0,-3.516 -0.846,-6.033 -2.517,-7.553c-2.257,-1.953 -5.599,-2.951 -9.983,-2.951c-4.167,0 -7.248,0.738 -9.201,2.17c-1.975,1.454 -3.429,4.037 -4.341,7.726l-8.593,-1.215c0.803,-3.69 2.083,-6.684 3.819,-8.941c1.78,-2.257 4.362,-3.993 7.726,-5.209c3.407,-1.215 7.378,-1.823 11.892,-1.823c4.384,0 7.986,0.521 10.764,1.563c2.778,1.042 4.796,2.387 6.076,3.993c1.324,1.562 2.257,3.537 2.778,5.903c0.282,1.519 0.434,4.231 0.434,8.159l0,11.719c0,8.16 0.174,13.347 0.521,15.538c0.391,2.149 1.15,4.21 2.257,6.164l-9.201,-0c-0.933,-1.845 -1.519,-3.993 -1.736,-6.424Zm-0.782,-19.618c-3.19,1.345 -7.964,2.43 -14.323,3.299c-3.602,0.52 -6.141,1.128 -7.639,1.822c-1.519,0.651 -2.669,1.606 -3.472,2.865c-0.824,1.215 -1.215,2.604 -1.215,4.167c-0,2.322 0.868,4.253 2.604,5.816c1.78,1.562 4.384,2.343 7.813,2.343c3.407,0 6.423,-0.716 9.027,-2.17c2.648,-1.497 4.601,-3.515 5.816,-6.076c0.912,-2.018 1.389,-4.97 1.389,-8.854l0,-3.212Z" style="fill-rule:nonzero;"/></g><g id="use792"><path id="path8" d="M58.48,71.615l-0,-51.823l7.899,-0l0,7.812c2.018,-3.646 3.863,-6.033 5.556,-7.205c1.736,-1.215 3.602,-1.823 5.642,-1.823c2.995,0 6.011,0.955 9.028,2.865l-2.952,8.16c-2.213,-1.259 -4.383,-1.91 -6.51,-1.91c-1.91,-0 -3.646,0.586 -5.208,1.736c-1.519,1.172 -2.583,2.756 -3.212,4.774c-0.998,3.125 -1.476,6.554 -1.476,10.243l0,27.171l-8.767,-0Z" style="fill-rule:nonzero;"/></g><g id="use794"><path id="path11" d="M125.722,52.604l8.593,1.129c-0.933,5.968 -3.342,10.655 -7.205,14.062c-3.884,3.364 -8.658,5.035 -14.322,5.035c-7.119,-0 -12.848,-2.3 -17.188,-6.945c-4.297,-4.687 -6.424,-11.328 -6.424,-19.965c0,-5.599 0.912,-10.503 2.778,-14.67c1.845,-4.21 4.644,-7.378 8.42,-9.462c3.82,-2.127 7.943,-3.212 12.414,-3.212c5.664,0 10.264,1.454 13.802,4.341c3.58,2.843 5.902,6.857 6.944,12.066l-8.594,1.302c-0.824,-3.473 -2.257,-6.077 -4.34,-7.813c-2.04,-1.779 -4.514,-2.691 -7.465,-2.691c-4.406,0 -7.986,1.606 -10.764,4.775c-2.778,3.19 -4.167,8.224 -4.167,15.104c0,6.944 1.324,12.022 3.993,15.191c2.648,3.125 6.163,4.687 10.504,4.687c3.407,0 6.271,-1.041 8.593,-3.125c2.301,-2.127 3.777,-5.403 4.428,-9.809Z" style="fill-rule:nonzero;"/></g><g id="use796"><path id="path14" d="M141.867,71.615l0,-71.615l8.768,-0l-0,25.694c4.101,-4.73 9.288,-7.118 15.538,-7.118c3.819,0 7.14,0.76 9.983,2.257c2.821,1.519 4.861,3.624 6.076,6.337c1.259,2.669 1.91,6.511 1.91,11.545l-0,32.9l-8.854,-0l-0,-32.9c-0,-4.383 -0.955,-7.574 -2.865,-9.548c-1.91,-2.019 -4.601,-3.039 -8.073,-3.039c-2.604,0 -5.078,0.695 -7.378,2.084c-2.257,1.345 -3.885,3.168 -4.862,5.469c-0.998,2.322 -1.475,5.512 -1.475,9.548l-0,28.386l-8.768,-0Z" style="fill-rule:nonzero;"/></g><g id="use798"><path id="path17" d="M197.569,10.156l0,-10.156l8.768,-0l-0,10.156l-8.768,0Zm0,61.459l0,-51.823l8.768,-0l-0,51.823l-8.768,-0Z" style="fill-rule:nonzero;"/></g><g id="use800"><path id="path20" d="M234.109,71.615l-19.705,-51.823l9.288,-0l11.112,30.989c1.215,3.364 2.3,6.858 3.298,10.504c0.803,-2.778 1.91,-6.077 3.299,-9.896l11.458,-31.597l9.115,-0l-19.705,51.823l-8.16,-0Z" style="fill-rule:nonzero;"/></g><g id="use802"><path id="path23" d="M305.203,54.948l9.114,1.128c-1.454,5.274 -4.123,9.375 -7.986,12.327c-3.884,2.951 -8.832,4.427 -14.843,4.427c-7.596,-0 -13.607,-2.344 -18.056,-7.031c-4.47,-4.688 -6.684,-11.242 -6.684,-19.705c0,-8.681 2.214,-15.408 6.684,-20.226c4.514,-4.861 10.352,-7.292 17.535,-7.292c6.944,0 12.608,2.388 17.014,7.118c4.383,4.688 6.597,11.329 6.597,19.879c-0,0.521 -0.044,1.302 -0.087,2.344l-38.628,-0c0.282,5.729 1.866,10.113 4.774,13.107c2.951,3.017 6.554,4.514 10.851,4.514c3.233,0 5.989,-0.824 8.246,-2.517c2.3,-1.671 4.123,-4.362 5.469,-8.073Zm-28.906,-14.236l28.993,-0c-0.413,-4.34 -1.519,-7.596 -3.299,-9.809c-2.843,-3.407 -6.489,-5.122 -10.937,-5.122c-3.993,0 -7.379,1.367 -10.157,4.08c-2.734,2.734 -4.253,6.337 -4.6,10.851Z" style="fill-rule:nonzero;"/></g><g id="use804"><rect id="path26" x="327.832" y="61.632" width="9.983" height="9.983" style="fill-rule:nonzero;"/></g><g id="use806"><path id="path29" d="M372.282,63.715l1.302,7.813c-2.496,0.521 -4.731,0.781 -6.684,0.781c-3.19,0 -5.686,-0.499 -7.465,-1.476c-1.736,-1.041 -2.952,-2.365 -3.646,-3.993c-0.695,-1.671 -1.042,-5.143 -1.042,-10.416l0,-29.862l-6.51,0l-0,-6.77l6.51,-0l0,-12.848l8.681,-5.295l-0,18.143l8.854,-0l-0,6.77l-8.854,0l-0,30.382c-0,2.496 0.13,4.124 0.434,4.862c0.347,0.694 0.868,1.258 1.562,1.649c0.695,0.412 1.693,0.607 3.038,0.607c0.912,0 2.192,-0.108 3.82,-0.347Z" style="fill-rule:nonzero;"/></g><g id="use808"><path id="path32" d="M377.582,45.66c0,-9.592 2.691,-16.71 8.073,-21.354c4.449,-3.82 9.853,-5.73 16.233,-5.73c7.161,0 13.021,2.344 17.535,7.032c4.514,4.687 6.771,11.154 6.771,19.357c-0,6.663 -1.02,11.893 -3.039,15.712c-1.974,3.82 -4.861,6.814 -8.68,8.941c-3.82,2.127 -8.03,3.212 -12.587,3.212c-7.248,-0 -13.108,-2.3 -17.622,-6.945c-4.47,-4.687 -6.684,-11.415 -6.684,-20.225Zm9.028,-0c0,6.662 1.433,11.632 4.341,14.93c2.886,3.299 6.532,4.948 10.937,4.948c4.384,0 8.03,-1.649 10.938,-4.948c2.886,-3.342 4.34,-8.42 4.34,-15.191c-0,-6.423 -1.476,-11.284 -4.427,-14.583c-2.908,-3.299 -6.511,-4.948 -10.851,-4.948c-4.405,0 -8.051,1.649 -10.937,4.948c-2.908,3.299 -4.341,8.246 -4.341,14.844Z" style="fill-rule:nonzero;"/></g><g id="use810"><path id="path35" d="M470.177,71.615l-0,-6.511c-3.299,5.165 -8.16,7.726 -14.583,7.726c-4.124,-0 -7.9,-1.129 -11.372,-3.386c-3.472,-2.3 -6.163,-5.49 -8.073,-9.548c-1.91,-4.102 -2.865,-8.811 -2.865,-14.149c0,-5.209 0.869,-9.896 2.605,-14.063c1.736,-4.21 4.297,-7.465 7.725,-9.722c3.473,-2.257 7.335,-3.386 11.632,-3.386c3.125,0 5.903,0.673 8.334,1.997c2.43,1.345 4.427,3.038 5.989,5.121l0,-25.694l8.681,-0l-0,71.615l-8.073,-0Zm-27.865,-25.868c0,6.662 1.389,11.631 4.167,14.93c2.821,3.255 6.163,4.861 9.983,4.861c3.819,0 7.053,-1.562 9.722,-4.687c2.712,-3.125 4.08,-7.921 4.08,-14.41c-0,-7.053 -1.368,-12.24 -4.08,-15.538c-2.735,-3.342 -6.077,-5.035 -10.07,-5.035c-3.949,0 -7.248,1.606 -9.895,4.774c-2.605,3.19 -3.907,8.225 -3.907,15.105Z" style="fill-rule:nonzero;"/></g><g id="use812"><path id="path51" serif:id="path5" d="M525.966,65.191c-3.256,2.778 -6.402,4.753 -9.462,5.903c-3.017,1.15 -6.228,1.736 -9.636,1.736c-5.729,-0 -10.134,-1.389 -13.194,-4.167c-3.016,-2.821 -4.514,-6.423 -4.514,-10.764c0,-2.474 0.564,-4.774 1.736,-6.857c1.15,-2.127 2.648,-3.841 4.514,-5.122c1.845,-1.259 3.95,-2.213 6.337,-2.864c1.736,-0.456 4.34,-0.89 7.812,-1.303c7.053,-0.868 12.262,-1.866 15.625,-3.038c0.044,-1.215 0.087,-1.996 0.087,-2.343c0,-3.516 -0.846,-6.033 -2.517,-7.553c-2.257,-1.953 -5.599,-2.951 -9.983,-2.951c-4.166,0 -7.248,0.738 -9.201,2.17c-1.975,1.454 -3.429,4.037 -4.34,7.726l-8.594,-1.215c0.803,-3.69 2.083,-6.684 3.819,-8.941c1.78,-2.257 4.362,-3.993 7.726,-5.209c3.407,-1.215 7.378,-1.823 11.892,-1.823c4.384,0 7.986,0.521 10.764,1.563c2.778,1.042 4.796,2.387 6.077,3.993c1.323,1.562 2.257,3.537 2.777,5.903c0.283,1.519 0.434,4.231 0.434,8.159l0,11.719c0,8.16 0.174,13.347 0.521,15.538c0.391,2.149 1.15,4.21 2.257,6.164l-9.201,-0c-0.933,-1.845 -1.519,-3.993 -1.736,-6.424Zm-0.782,-19.618c-3.19,1.345 -7.964,2.43 -14.322,3.299c-3.603,0.52 -6.142,1.128 -7.639,1.822c-1.519,0.651 -2.67,1.606 -3.473,2.865c-0.824,1.215 -1.215,2.604 -1.215,4.167c0,2.322 0.868,4.253 2.604,5.816c1.78,1.562 4.384,2.343 7.813,2.343c3.407,0 6.423,-0.716 9.028,-2.17c2.647,-1.497 4.6,-3.515 5.816,-6.076c0.911,-2.018 1.388,-4.97 1.388,-8.854l0,-3.212Z" style="fill-rule:nonzero;"/></g><g id="use814"><path id="path38" d="M547.293,91.58l-0.955,-8.247c1.91,0.521 3.581,0.782 5.035,0.782c1.953,-0 3.515,-0.326 4.687,-0.955c1.15,-0.651 2.105,-1.563 2.865,-2.778c0.564,-0.868 1.475,-3.038 2.691,-6.51c0.173,-0.521 0.434,-1.259 0.781,-2.171l-19.618,-51.909l9.462,-0l10.764,30.034c1.388,3.776 2.625,7.769 3.732,11.98c1.042,-4.037 2.257,-7.987 3.646,-11.806l11.111,-30.208l8.767,-0l-19.704,52.691c-2.149,5.729 -3.798,9.657 -4.948,11.805c-1.563,2.886 -3.364,4.992 -5.382,6.337c-2.04,1.324 -4.427,1.997 -7.205,1.997c-1.736,-0 -3.646,-0.348 -5.729,-1.042Z" style="fill-rule:nonzero;"/></g></g><g id="g830"><g id="use818"><path id="path44" d="M110.191,142.448l-7.899,-25.955l4.514,0l4.166,15.017l1.476,5.556c0.043,-0.282 0.521,-2.083 1.389,-5.382l4.08,-15.191l4.514,0l3.906,15.104l1.302,4.948l1.476,-5.035l4.427,-15.017l4.253,0l-8.073,25.955l-4.514,-0l-4.166,-15.538l-1.042,-4.427l-5.208,19.965l-4.601,-0Z" style="fill-rule:nonzero;"/></g><g id="use820"><path id="path47" d="M159.233,134.115l4.601,0.52c-0.759,2.67 -2.127,4.753 -4.08,6.25c-1.91,1.454 -4.383,2.171 -7.378,2.171c-3.776,-0 -6.771,-1.151 -9.028,-3.473c-2.214,-2.365 -3.299,-5.664 -3.299,-9.896c0,-4.34 1.129,-7.682 3.386,-10.069c2.257,-2.431 5.165,-3.646 8.767,-3.646c3.472,0 6.272,1.194 8.42,3.559c2.192,2.322 3.299,5.621 3.299,9.896l-0,1.215l-19.358,0c0.174,2.843 0.977,5.013 2.431,6.511c1.432,1.519 3.255,2.257 5.469,2.257c1.605,-0 2.973,-0.391 4.079,-1.216c1.151,-0.868 2.04,-2.213 2.691,-4.079Zm-14.409,-7.118l14.496,-0c-0.173,-2.192 -0.738,-3.842 -1.649,-4.948c-1.389,-1.671 -3.212,-2.518 -5.469,-2.518c-2.04,0 -3.733,0.695 -5.121,2.084c-1.346,1.345 -2.084,3.125 -2.257,5.382Z" style="fill-rule:nonzero;"/></g><g id="use822"><path id="path50" d="M173.413,142.448l-4.08,-0l-0,-35.764l4.34,0l-0,12.76c1.845,-2.3 4.21,-3.472 7.118,-3.472c1.606,0 3.125,0.326 4.514,0.955c1.432,0.651 2.626,1.541 3.559,2.691c0.911,1.172 1.649,2.583 2.17,4.254c0.521,1.627 0.781,3.363 0.781,5.208c0,4.47 -1.106,7.899 -3.298,10.33c-2.214,2.43 -4.84,3.646 -7.9,3.646c-3.081,-0 -5.468,-1.259 -7.204,-3.82l-0,3.212Zm-0.087,-13.195c-0,3.125 0.434,5.382 1.302,6.771c1.389,2.257 3.233,3.386 5.555,3.386c1.953,-0 3.646,-0.825 5.035,-2.518c1.389,-1.671 2.083,-4.166 2.083,-7.465c0,-3.342 -0.672,-5.838 -1.996,-7.465c-1.346,-1.606 -2.951,-2.431 -4.861,-2.431c-1.975,0 -3.646,0.847 -5.035,2.518c-1.389,1.692 -2.083,4.079 -2.083,7.204Z" style="fill-rule:nonzero;"/></g><g id="use824"><path id="path53" d="M197.14,152.344l0,-35.851l3.993,0l0,3.385c0.912,-1.323 1.953,-2.3 3.125,-2.951c1.216,-0.629 2.691,-0.955 4.427,-0.955c2.192,0 4.124,0.586 5.816,1.736c1.671,1.107 2.952,2.691 3.82,4.775c0.868,2.083 1.302,4.34 1.302,6.77c-0,2.67 -0.499,5.079 -1.476,7.205c-0.933,2.149 -2.3,3.798 -4.08,4.948c-1.801,1.085 -3.711,1.65 -5.729,1.65c-1.454,-0 -2.756,-0.326 -3.906,-0.955c-1.172,-0.63 -2.127,-1.411 -2.865,-2.344l0,12.587l-4.427,-0Zm3.993,-22.743c0,3.363 0.651,5.859 1.997,7.465c1.389,1.562 3.038,2.344 4.948,2.344c1.91,-0 3.559,-0.803 4.948,-2.431c1.432,-1.671 2.17,-4.253 2.17,-7.726c-0,-3.298 -0.695,-5.75 -2.083,-7.378c-1.346,-1.671 -2.952,-2.517 -4.862,-2.517c-1.866,-0 -3.515,0.911 -4.948,2.691c-1.454,1.736 -2.17,4.253 -2.17,7.552Z" style="fill-rule:nonzero;"/></g><g id="use826"><path id="path56" d="M241.875,139.236c-1.628,1.389 -3.19,2.387 -4.688,2.951c-1.519,0.565 -3.125,0.869 -4.861,0.869c-2.843,-0 -5.034,-0.695 -6.597,-2.084c-1.519,-1.389 -2.257,-3.168 -2.257,-5.382c0,-1.258 0.282,-2.43 0.868,-3.472c0.564,-1.042 1.324,-1.866 2.257,-2.517c0.912,-0.63 1.953,-1.129 3.125,-1.476c0.868,-0.174 2.17,-0.369 3.906,-0.608c3.581,-0.39 6.207,-0.911 7.9,-1.562l-0,-1.129c-0,-1.779 -0.413,-3.038 -1.216,-3.732c-1.171,-1.042 -2.842,-1.563 -5.034,-1.563c-2.084,0 -3.624,0.391 -4.601,1.129c-0.998,0.694 -1.714,1.975 -2.17,3.819l-4.254,-0.521c0.348,-1.844 0.955,-3.32 1.823,-4.427c0.912,-1.15 2.214,-2.018 3.907,-2.604c1.736,-0.629 3.689,-0.955 5.902,-0.955c2.257,0 4.037,0.261 5.382,0.781c1.389,0.521 2.387,1.194 3.039,1.997c0.694,0.76 1.15,1.736 1.388,2.951c0.174,0.76 0.261,2.084 0.261,3.993l-0,5.903c-0,4.058 0.087,6.641 0.26,7.726c0.174,1.107 0.543,2.148 1.129,3.125l-4.601,-0c-0.477,-0.912 -0.76,-1.997 -0.868,-3.212Zm-0.347,-9.809c-1.628,0.651 -4.037,1.194 -7.205,1.649c-1.801,0.304 -3.082,0.608 -3.82,0.955c-0.759,0.304 -1.345,0.76 -1.736,1.389c-0.412,0.651 -0.607,1.346 -0.607,2.083c-0,1.172 0.434,2.149 1.302,2.952c0.868,0.759 2.17,1.128 3.906,1.128c1.671,0 3.168,-0.369 4.514,-1.128c1.324,-0.738 2.3,-1.758 2.951,-3.038c0.456,-0.977 0.695,-2.431 0.695,-4.341l-0,-1.649Z" style="fill-rule:nonzero;"/></g><g id="use828"><path id="path59" d="M251.974,144.618l4.254,0.608c0.173,1.323 0.651,2.278 1.475,2.864c1.086,0.803 2.605,1.216 4.514,1.216c2.019,-0 3.581,-0.413 4.688,-1.216c1.085,-0.824 1.844,-1.953 2.257,-3.385c0.217,-0.933 0.304,-2.8 0.26,-5.643c-1.91,2.257 -4.297,3.386 -7.118,3.386c-3.602,-0 -6.38,-1.259 -8.333,-3.82c-1.91,-2.604 -2.865,-5.685 -2.865,-9.288c0,-2.474 0.434,-4.774 1.302,-6.857c0.912,-2.084 2.214,-3.668 3.907,-4.775c1.671,-1.15 3.667,-1.736 5.989,-1.736c3.06,0 5.577,1.215 7.552,3.646l0,-3.125l4.08,0l0,22.396c0,4.036 -0.434,6.901 -1.302,8.594c-0.825,1.671 -2.127,2.994 -3.906,3.993c-1.736,0.976 -3.907,1.475 -6.511,1.475c-3.125,0 -5.642,-0.694 -7.552,-2.083c-1.866,-1.389 -2.756,-3.472 -2.691,-6.25Zm3.646,-15.625c0,3.429 0.651,5.903 1.997,7.465c1.323,1.563 2.994,2.344 5.034,2.344c2.019,0 3.733,-0.781 5.122,-2.344c1.389,-1.562 2.083,-3.993 2.083,-7.291c0,-3.169 -0.738,-5.578 -2.17,-7.205c-1.389,-1.606 -3.082,-2.431 -5.035,-2.431c-1.974,0 -3.645,0.825 -5.034,2.431c-1.346,1.562 -1.997,3.906 -1.997,7.031Z" style="fill-rule:nonzero;"/></g></g><g id="g850"><g id="use832"><path id="path471" serif:id="path47" d="M298.121,134.115l4.601,0.52c-0.759,2.67 -2.127,4.753 -4.08,6.25c-1.909,1.454 -4.383,2.171 -7.378,2.171c-3.776,-0 -6.771,-1.151 -9.028,-3.473c-2.213,-2.365 -3.299,-5.664 -3.299,-9.896c0,-4.34 1.129,-7.682 3.386,-10.069c2.257,-2.431 5.165,-3.646 8.767,-3.646c3.472,0 6.272,1.194 8.42,3.559c2.192,2.322 3.299,5.621 3.299,9.896l-0,1.215l-19.358,0c0.174,2.843 0.977,5.013 2.431,6.511c1.432,1.519 3.255,2.257 5.469,2.257c1.606,-0 2.973,-0.391 4.079,-1.216c1.151,-0.868 2.04,-2.213 2.691,-4.079Zm-14.409,-7.118l14.496,-0c-0.173,-2.192 -0.738,-3.842 -1.649,-4.948c-1.389,-1.671 -3.212,-2.518 -5.469,-2.518c-2.04,0 -3.732,0.695 -5.121,2.084c-1.346,1.345 -2.084,3.125 -2.257,5.382Z" style="fill-rule:nonzero;"/></g><g id="use836"><path id="path65" d="M339.039,132.986l4.341,0.521c-0.478,3.016 -1.693,5.36 -3.646,7.031c-1.975,1.693 -4.384,2.518 -7.205,2.518c-3.537,-0 -6.38,-1.151 -8.507,-3.473c-2.148,-2.3 -3.212,-5.642 -3.212,-9.982c0,-2.821 0.456,-5.295 1.389,-7.379c0.912,-2.083 2.301,-3.646 4.167,-4.687c1.91,-1.042 3.993,-1.563 6.25,-1.563c2.778,0 5.056,0.738 6.857,2.17c1.78,1.389 2.952,3.386 3.473,5.99l-4.254,0.694c-0.412,-1.736 -1.128,-3.038 -2.17,-3.906c-1.042,-0.911 -2.3,-1.389 -3.733,-1.389c-2.257,0 -4.079,0.825 -5.468,2.431c-1.346,1.562 -1.997,4.058 -1.997,7.465c0,3.537 0.651,6.076 1.997,7.639c1.323,1.562 3.06,2.344 5.208,2.344c1.736,-0 3.168,-0.521 4.34,-1.563c1.15,-1.041 1.867,-2.647 2.17,-4.861Z" style="fill-rule:nonzero;"/></g><g id="use838"><path id="path561" serif:id="path56" d="M364.039,139.236c-1.627,1.389 -3.19,2.387 -4.687,2.951c-1.519,0.565 -3.125,0.869 -4.861,0.869c-2.843,-0 -5.035,-0.695 -6.597,-2.084c-1.519,-1.389 -2.257,-3.168 -2.257,-5.382c-0,-1.258 0.282,-2.43 0.868,-3.472c0.564,-1.042 1.323,-1.866 2.257,-2.517c0.911,-0.63 1.953,-1.129 3.125,-1.476c0.868,-0.174 2.17,-0.369 3.906,-0.608c3.581,-0.39 6.207,-0.911 7.899,-1.562l0,-1.129c0,-1.779 -0.412,-3.038 -1.215,-3.732c-1.172,-1.042 -2.843,-1.563 -5.035,-1.563c-2.083,0 -3.624,0.391 -4.6,1.129c-0.999,0.694 -1.715,1.975 -2.171,3.819l-4.253,-0.521c0.347,-1.844 0.955,-3.32 1.823,-4.427c0.911,-1.15 2.213,-2.018 3.906,-2.604c1.736,-0.629 3.689,-0.955 5.903,-0.955c2.257,0 4.036,0.261 5.382,0.781c1.389,0.521 2.387,1.194 3.038,1.997c0.694,0.76 1.15,1.736 1.389,2.951c0.173,0.76 0.26,2.084 0.26,3.993l0,5.903c0,4.058 0.087,6.641 0.261,7.726c0.173,1.107 0.542,2.148 1.128,3.125l-4.601,-0c-0.477,-0.912 -0.759,-1.997 -0.868,-3.212Zm-0.347,-9.809c-1.627,0.651 -4.036,1.194 -7.205,1.649c-1.801,0.304 -3.081,0.608 -3.819,0.955c-0.76,0.304 -1.346,0.76 -1.736,1.389c-0.413,0.651 -0.608,1.346 -0.608,2.083c0,1.172 0.434,2.149 1.302,2.952c0.868,0.759 2.17,1.128 3.906,1.128c1.671,0 3.169,-0.369 4.514,-1.128c1.324,-0.738 2.301,-1.758 2.952,-3.038c0.455,-0.977 0.694,-2.431 0.694,-4.341l0,-1.649Z" style="fill-rule:nonzero;"/></g><g id="use840"><path id="path531" serif:id="path53" d="M374.92,152.344l-0,-35.851l3.993,0l0,3.385c0.911,-1.323 1.953,-2.3 3.125,-2.951c1.215,-0.629 2.691,-0.955 4.427,-0.955c2.192,0 4.123,0.586 5.816,1.736c1.671,1.107 2.951,2.691 3.82,4.775c0.868,2.083 1.302,4.34 1.302,6.77c-0,2.67 -0.5,5.079 -1.476,7.205c-0.933,2.149 -2.3,3.798 -4.08,4.948c-1.801,1.085 -3.711,1.65 -5.729,1.65c-1.454,-0 -2.756,-0.326 -3.906,-0.955c-1.172,-0.63 -2.127,-1.411 -2.865,-2.344l0,12.587l-4.427,-0Zm3.993,-22.743c0,3.363 0.651,5.859 1.997,7.465c1.388,1.562 3.038,2.344 4.947,2.344c1.91,-0 3.559,-0.803 4.948,-2.431c1.433,-1.671 2.171,-4.253 2.171,-7.726c-0,-3.298 -0.695,-5.75 -2.084,-7.378c-1.345,-1.671 -2.951,-2.517 -4.861,-2.517c-1.866,-0 -3.516,0.911 -4.948,2.691c-1.454,1.736 -2.17,4.253 -2.17,7.552Z" style="fill-rule:nonzero;"/></g><g id="use842"><path id="path68" d="M412.363,138.542l0.608,3.819c-1.281,0.282 -2.388,0.434 -3.299,0.434c-1.628,0 -2.865,-0.26 -3.733,-0.781c-0.868,-0.521 -1.519,-1.172 -1.909,-1.997c-0.348,-0.803 -0.521,-2.517 -0.521,-5.121l-0,-14.931l-3.212,0l0,-3.472l3.212,0l-0,-6.424l4.427,-2.604l-0,9.028l4.427,0l-0,3.472l-4.427,0l-0,15.104c-0,1.281 0.043,2.084 0.174,2.431c0.173,0.347 0.434,0.651 0.781,0.868c0.347,0.239 0.824,0.347 1.475,0.347c0.521,0 1.172,-0.043 1.997,-0.173Z" style="fill-rule:nonzero;"/></g><g id="use844"><path id="path71" d="M433.633,142.448l0,-3.82c-2.04,2.952 -4.774,4.428 -8.246,4.428c-1.52,-0 -2.93,-0.304 -4.254,-0.869c-1.345,-0.629 -2.344,-1.388 -3.038,-2.256c-0.651,-0.869 -1.085,-1.932 -1.302,-3.212c-0.174,-0.868 -0.261,-2.257 -0.261,-4.167l0,-16.059l4.341,0l-0,14.41c-0,2.322 0.108,3.863 0.347,4.6c0.217,1.172 0.781,2.084 1.649,2.778c0.912,0.651 2.04,0.955 3.386,0.955c1.323,0 2.56,-0.304 3.732,-0.955c1.15,-0.694 1.953,-1.606 2.431,-2.778c0.456,-1.15 0.694,-2.864 0.694,-5.121l0,-13.889l4.427,0l0,25.955l-3.906,-0Z" style="fill-rule:nonzero;"/></g><g id="use846"><path id="path74" d="M444.34,142.448l-0,-25.955l3.993,0l0,3.993c0.977,-1.845 1.91,-3.06 2.778,-3.646c0.868,-0.564 1.823,-0.868 2.864,-0.868c1.433,0 2.952,0.478 4.514,1.389l-1.562,4.08c-1.042,-0.629 -2.127,-0.955 -3.212,-0.955c-0.933,0 -1.801,0.304 -2.604,0.868c-0.76,0.586 -1.302,1.389 -1.649,2.431c-0.478,1.562 -0.695,3.277 -0.695,5.121l0,13.542l-4.427,-0Z" style="fill-rule:nonzero;"/></g><g id="use848"><path id="path472" serif:id="path47" d="M478.786,134.115l4.6,0.52c-0.759,2.67 -2.127,4.753 -4.08,6.25c-1.909,1.454 -4.383,2.171 -7.378,2.171c-3.776,-0 -6.771,-1.151 -9.028,-3.473c-2.213,-2.365 -3.299,-5.664 -3.299,-9.896c0,-4.34 1.129,-7.682 3.386,-10.069c2.257,-2.431 5.165,-3.646 8.767,-3.646c3.472,0 6.272,1.194 8.42,3.559c2.192,2.322 3.299,5.621 3.299,9.896l0,1.215l-19.358,0c0.174,2.843 0.977,5.013 2.431,6.511c1.432,1.519 3.255,2.257 5.469,2.257c1.606,-0 2.973,-0.391 4.08,-1.216c1.15,-0.868 2.039,-2.213 2.691,-4.079Zm-14.41,-7.118l14.496,-0c-0.173,-2.192 -0.738,-3.842 -1.649,-4.948c-1.389,-1.671 -3.212,-2.518 -5.469,-2.518c-2.04,0 -3.732,0.695 -5.121,2.084c-1.346,1.345 -2.084,3.125 -2.257,5.382Z" style="fill-rule:nonzero;"/></g></g></g></svg>